<?xml version="1.0" encoding="utf-8"?>
<!-- Generator: Adobe Illustrator 16.0.0, SVG Export Plug-In . SVG Version: 6.00 Build 0)  -->
<!DOCTYPE svg PUBLIC "-//W3C//DTD SVG 1.1//EN" "http://www.w3.org/Graphics/SVG/1.1/DTD/svg11.dtd">
<svg version="1.1" id="Layer_1" xmlns="http://www.w3.org/2000/svg" xmlns:xlink="http://www.w3.org/1999/xlink" x="0px" y="0px"
	 width="42.976px" height="41.654px" viewBox="0 0 42.976 41.654" enable-background="new 0 0 42.976 41.654" xml:space="preserve">
<g>
	<g>
		<g>
			<path fill="#F05663" d="M36.734,18.734h-25.42H8.137v3.457v3.475v11.479c0,1.9,1.43,3.455,3.178,3.455h25.42
				c1.748,0,3.178-1.555,3.178-3.455V25.666v-3.475v-3.457H36.734z"/>
			<path fill="#F05663" d="M29.424,9.426L4.467,16.711c-1.717,0.5-2.781,2.068-2.367,3.484l0.107,0.375l0.266,0.912l0.754,2.572
				l3.119-0.91l24.955-7.285l3.119-0.912l-0.748-2.574l-0.27-0.91l-0.109-0.375C32.881,9.672,31.139,8.926,29.424,9.426z"/>
			<g>
				<path fill="#F05663" d="M22.857,1.08c-0.639,0.186-3.678,3.178-5.516,5.127c0.479,0.26,0.891,0.684,1.154,1.229
					c0.799-0.422,1.91-0.883,3.334-1.293c2.734-0.789,4.586-0.799,5.225-0.615c-0.445,0.498-2.021,1.477-4.758,2.266
					c-1.424,0.41-2.609,0.611-3.508,0.678c0.051,0.482-0.021,0.947-0.191,1.357c1.643-0.076,3.49-0.574,4.068-0.74
					c1.043-0.301,6.232-1.906,5.656-3.928C27.75,3.139,23.902,0.779,22.857,1.08z"/>
				<path fill="#F05663" d="M14.344,9.787c-0.787,0.4-1.85,0.834-3.197,1.223c-2.734,0.789-4.586,0.799-5.229,0.615
					c0.449-0.498,2.021-1.475,4.76-2.266c1.35-0.389,2.477-0.588,3.355-0.666c-0.055-0.619,0.084-1.219,0.379-1.697
					c-2.588-0.668-6.629-1.563-7.26-1.381C6.107,5.918,4.08,9.973,4.654,11.994s5.818,0.617,6.861,0.318
					c0.563-0.164,2.311-0.697,3.723-1.473C14.873,10.578,14.563,10.223,14.344,9.787z"/>
				<path fill="#F05663" d="M15.826,6.529c-1.002,0.289-1.551,1.449-1.227,2.59c0.322,1.141,1.395,1.832,2.4,1.543
					c1-0.289,1.551-1.451,1.227-2.588C17.904,6.934,16.828,6.24,15.826,6.529z"/>
			</g>
		</g>
	</g>
	<g>
		<path fill="#FFFFFF" d="M18.259,32.965c0.426,0.305,0.889,0.547,1.389,0.727l-0.639,1.225c-0.262-0.078-0.518-0.186-0.768-0.322
			c-0.055-0.027-0.439-0.281-1.154-0.762c-0.563,0.246-1.186,0.369-1.869,0.369c-1.32,0-2.354-0.389-3.103-1.166
			s-1.122-1.869-1.122-3.275c0-1.402,0.375-2.493,1.125-3.272s1.768-1.169,3.053-1.169c1.273,0,2.283,0.39,3.029,1.169
			s1.119,1.87,1.119,3.272c0,0.742-0.104,1.395-0.311,1.957C18.853,32.146,18.603,32.563,18.259,32.965z M16.865,31.986
			c0.223-0.262,0.39-0.578,0.501-0.949s0.167-0.797,0.167-1.277c0-0.992-0.219-1.733-0.656-2.224s-1.01-0.735-1.717-0.735
			s-1.28,0.246-1.72,0.738s-0.659,1.232-0.659,2.221c0,1.004,0.22,1.755,0.659,2.253s0.995,0.747,1.667,0.747
			c0.25,0,0.486-0.041,0.709-0.123c-0.352-0.23-0.709-0.41-1.072-0.539l0.486-0.99C15.8,31.303,16.345,31.596,16.865,31.986z"/>
		<path fill="#FFFFFF" d="M20.547,25.465h1.734v4.652c0,0.738,0.021,1.217,0.064,1.436c0.074,0.352,0.251,0.634,0.53,0.847
			s0.661,0.319,1.146,0.319c0.492,0,0.863-0.101,1.113-0.302s0.4-0.448,0.451-0.741s0.076-0.779,0.076-1.459v-4.752h1.734v4.512
			c0,1.031-0.047,1.76-0.141,2.186s-0.267,0.785-0.519,1.078s-0.589,0.526-1.011,0.7s-0.973,0.261-1.652,0.261
			c-0.82,0-1.442-0.095-1.866-0.284s-0.759-0.436-1.005-0.738s-0.408-0.62-0.486-0.952c-0.113-0.492-0.17-1.219-0.17-2.18V25.465z"
			/>
		<path fill="#FFFFFF" d="M36.851,34.055h-1.887l-0.75-1.951h-3.434l-0.709,1.951h-1.84l3.346-8.59h1.834L36.851,34.055z
			 M33.453,24.973h-1.037l-1.617-1.752h1.846L33.453,24.973z M33.658,30.656l-1.184-3.188l-1.16,3.188H33.658z"/>
	</g>
</g>
</svg>
